<?xml version="1.0" encoding="UTF-8"?>
<svg id="Layer_1" data-name="Layer 1" xmlns="http://www.w3.org/2000/svg" viewBox="0 0 54.78 50.55">
  <defs>
    <style>
      .cls-1 {
        fill: #fff;
      }
    </style>
  </defs>
  <path class="cls-1" d="M12.54,40.27c-2.77-1.45-5.22-3.2-7.27-5.46C1.55,30.71-.39,25.95,.07,20.36c.38-4.63,2.42-8.52,5.63-11.81C9.82,4.32,14.9,1.84,20.64,.71c7.65-1.51,15.02-.64,21.95,3.03,4.71,2.49,8.5,5.97,10.6,10.96,3,7.11,1.68,13.64-3.22,19.45-4.02,4.78-9.34,7.43-15.35,8.8-2.82,.64-5.67,.87-8.55,.74-.62-.03-1.1,.13-1.61,.49-3.97,2.84-8.24,5.05-13.03,6.14-.33,.08-.66,.15-1,.2-.95,.14-1.75-.14-2.28-.96-.53-.81-.48-1.65,.04-2.47,1.32-2.04,2.64-4.08,3.96-6.13,.13-.2,.23-.42,.39-.69Zm17.02-12.83c0-1.41,0-2.82,0-4.23,0-1.37-.9-2.34-2.16-2.35-1.28-.02-2.21,.97-2.22,2.37,0,2.8,0,5.6,0,8.4,0,1.37,.9,2.34,2.16,2.35,1.28,.02,2.21-.96,2.22-2.37,0-1.39,0-2.77,0-4.16Zm-2.17-11c1.83-.02,3.28-1.49,3.25-3.32-.03-1.83-1.51-3.26-3.34-3.23-1.8,.03-3.22,1.48-3.21,3.28,0,1.83,1.47,3.28,3.3,3.27Z"/>
</svg>