<?xml version="1.0" encoding="UTF-8"?>
<svg id="Layer_1" data-name="Layer 1" xmlns="http://www.w3.org/2000/svg" viewBox="0 0 53.34 46.04">
  <defs>
    <style>
      .cls-1 {
        fill: #fff;
      }
    </style>
  </defs>
  <path class="cls-1" d="M0,44.5c.31-1.24,.63-2.48,.93-3.72,.54-2.24,1.05-4.49,1.59-6.73,.07-.3,.25-.62,.47-.84,7.82-7.84,15.66-15.68,23.5-23.51,.08-.08,.18-.16,.23-.21,3.27,3.27,6.52,6.52,9.82,9.82-.08,.08-.2,.22-.33,.35-7.74,7.74-15.47,15.48-23.22,23.2-.32,.32-.79,.58-1.23,.69-3.3,.81-6.61,1.57-9.92,2.35-1,.24-1.27,.14-1.84-.67,0-.24,0-.49,0-.73Z"/>
  <path class="cls-1" d="M35.95,41.38c4.96,0,9.93,0,14.89,0,1.26,0,2.15,.66,2.43,1.78,.31,1.23-.47,2.52-1.71,2.79-.32,.07-.65,.08-.98,.08-9.75,0-19.51,0-29.26,0-.39,0-.81-.03-1.18-.14-1.05-.32-1.72-1.41-1.57-2.47,.15-1.12,1.04-1.95,2.18-2.03,.19-.01,.38,0,.57,0,4.88,0,9.75,0,14.63,0Z"/>
  <path class="cls-1" d="M30.16,6.1c1.62-1.64,3.22-3.33,4.9-4.93,1.65-1.56,4.47-1.56,6.14,0,1.27,1.18,2.5,2.41,3.68,3.68,1.51,1.62,1.66,4.23,.17,5.86-1.64,1.8-3.5,3.41-5.22,5.07-3.15-3.15-6.41-6.41-9.67-9.67Z"/>
</svg>