<?xml version="1.0" encoding="UTF-8"?>
<svg id="Layer_1" data-name="Layer 1" xmlns="http://www.w3.org/2000/svg" viewBox="0 0 50.31 54.42">
  <defs>
    <style>
      .cls-1 {
        fill: #fff;
      }
    </style>
  </defs>
  <path class="cls-1" d="M5.52,14.08C-.07,23.29-2.08,32.74,2.63,42.66c3.25,6.84,9.17,10.34,17.3,11.68-6.58-9.73-5.78-18.76-.28-28.89,2.07,8.81,4.92,14.63,14.09,8.57,4.27,6.74,5.22,13.06-1.13,20.4,9.81-3.09,14.86-8.69,16.92-17.02,2.89-11.66-2.64-20.04-10.86-27.67-2.49,3.9-3.93,9.52-9.55,7.26-7.74-3.1-5.22-10.42-5.32-17-7.57,5.25-10.37,12.99-13.11,21.88-1.97-2.98-3.47-5.25-5.17-7.81Z"/>
  <path class="cls-1" d="M5.52,14.08c1.7,2.56,3.2,4.83,5.17,7.81C13.43,12.99,16.22,5.25,23.8,0c.1,6.58-2.42,13.89,5.32,17,5.62,2.25,7.07-3.37,9.55-7.26,8.22,7.63,13.76,16.01,10.86,27.67-2.07,8.33-7.11,13.93-16.92,17.02,6.36-7.34,5.41-13.66,1.13-20.4-9.17,6.07-12.02,.24-14.09-8.57-5.51,10.13-6.3,19.16,.28,28.89-8.13-1.34-14.05-4.84-17.3-11.68C-2.08,32.74-.07,23.29,5.52,14.08Z"/>
</svg>