<?xml version="1.0" encoding="UTF-8"?>
<svg id="Layer_1" data-name="Layer 1" xmlns="http://www.w3.org/2000/svg" viewBox="0 0 46.2 54.16">
  <defs>
    <style>
      .cls-1 {
        fill: #fff;
      }
    </style>
  </defs>
  <path class="cls-1" d="M16.09,22.07c-1,.91-1.89,1.72-2.77,2.53-3.58,3.27-7.16,6.54-10.74,9.82-.48,.44-1.01,.65-1.63,.37-.62-.27-.93-.79-.93-1.46,0-4.21,0-8.42,0-12.62,0-.6,.34-1.01,.76-1.39,2.61-2.37,5.21-4.75,7.82-7.13,4.07-3.72,8.14-7.44,12.21-11.17,1.48-1.35,2.92-1.37,4.4-.02,6.78,6.14,13.55,12.28,20.33,18.41,.46,.42,.68,.91,.68,1.53,0,4.07,0,8.15,0,12.22,0,.07,0,.13,0,.2-.05,.66-.34,1.18-.96,1.45-.63,.27-1.15,.05-1.63-.38-2.39-2.17-4.78-4.34-7.18-6.51-2.01-1.82-4.02-3.65-6.04-5.47-.12-.11-.25-.21-.48-.4,0,.33,0,.55,0,.77,0,9.51,0,19.02,0,28.53,0,.33,0,.67-.07,.99-.21,1.13-1.05,1.82-2.2,1.82-3.1,0-6.19,0-9.29,0-1.24,0-2.13-.83-2.24-2.07-.02-.25-.02-.5-.02-.74,0-9.52,0-19.05,0-28.57,0-.18,0-.36,0-.7Z"/>
</svg>