<?xml version="1.0" standalone="no"?>
<!DOCTYPE svg PUBLIC "-//W3C//DTD SVG 20010904//EN"
 "http://www.w3.org/TR/2001/REC-SVG-20010904/DTD/svg10.dtd">
<svg version="1.0" xmlns="http://www.w3.org/2000/svg"
 width="400.000000pt" height="400.000000pt" viewBox="0 0 400.000000 400.000000"
 preserveAspectRatio="xMidYMid meet">
<metadata>
Created by potrace 1.14, written by Peter Selinger 2001-2017
</metadata>
<g transform="translate(0.000000,400.000000) scale(0.100000,-0.100000)"
fill="#000000" stroke="none">
<path d="M0 2000 l0 -2000 2000 0 2000 0 0 2000 0 2000 -2000 0 -2000 0 0
-2000z m2241 1487 c48 -32 61 -62 55 -127 -8 -80 -43 -357 -61 -490 -16 -119
-55 -430 -55 -442 0 -4 253 -9 563 -10 543 -3 563 -4 588 -23 32 -24 69 -86
69 -115 0 -36 -30 -81 -144 -216 -117 -139 -129 -153 -834 -999 -255 -307
-461 -546 -476 -553 -61 -27 -135 -4 -176 54 l-23 35 32 257 c17 141 39 307
47 367 23 161 23 163 34 255 5 46 10 92 10 102 0 17 -30 18 -557 18 -535 0
-559 1 -590 20 -55 33 -69 65 -64 145 1 24 14 40 788 968 343 411 635 753 650
761 42 23 104 20 144 -7z"/>
<path d="M1884 2838 c-33 -40 -141 -170 -238 -288 -98 -118 -222 -266 -275
-329 -53 -63 -115 -139 -138 -169 -23 -29 -65 -79 -93 -111 -27 -33 -50 -61
-50 -65 0 -3 215 -6 478 -6 300 0 491 -4 515 -11 55 -15 72 -48 72 -139 0 -75
-21 -256 -56 -489 -10 -69 -17 -126 -15 -128 2 -2 197 230 435 514 l431 518
-487 5 c-458 5 -490 6 -516 24 -53 36 -67 107 -47 246 11 82 15 117 35 315 9
88 18 166 20 173 10 28 -14 8 -71 -60z"/>
</g>
</svg>
